<svg width="90" height="90" viewBox="0 0 90 90" fill="none" xmlns="http://www.w3.org/2000/svg">
<path d="M4.00342 4.45312H85.7639V85.458H4.00342V4.45312Z" fill="url(#paint0_radial_167_573)"/>
<path d="M4.00341 4.80718H85.7639V85.8121H4.00341V4.80718ZM0.287842 89.5958H89.4973V1.02344H0.287842V89.5958ZM58.7188 32.6032C58.7188 32.2939 58.826 32.1484 59.1654 32.1484H65.0067C65.3104 32.1484 65.4533 32.2575 65.4533 32.6032V62.4729C65.4533 62.7822 65.3818 62.9277 65.0067 62.9277H59.2368C58.8617 62.9277 58.7545 62.7458 58.7545 62.4365V32.6032H58.7188ZM58.3079 23.9988C58.3079 21.5794 59.9871 20.1423 62.095 20.1423C64.3636 20.1423 65.882 21.6885 65.882 23.9988C65.882 26.491 64.2922 27.8553 62.0235 27.8553C59.8799 27.8735 58.3079 26.5091 58.3079 23.9988ZM41.5879 45.0459C40.5518 40.8437 38.0866 31.6936 37.1578 27.255H37.0863C36.3003 31.6754 34.3353 39.1701 32.7812 45.0459H41.5879ZM31.2629 51.1763L28.3333 62.5275C28.2618 62.8367 28.1546 62.9095 27.7795 62.9095H22.3133C21.9382 62.9095 21.8667 62.8004 21.9382 62.3456L32.4954 24.7264C32.6741 24.0534 32.7991 23.4349 32.8706 21.5794C32.8706 21.3065 32.9777 21.1973 33.1742 21.1973H40.9805C41.2485 21.1973 41.3556 21.2701 41.4271 21.5794L53.2526 62.4183C53.3241 62.7276 53.2526 62.9095 52.9489 62.9095H46.7861C46.4824 62.9095 46.3038 62.8367 46.2323 62.5639L43.1777 51.1763H31.2629Z" fill="#FF7F18"/>
<defs>
<radialGradient id="paint0_radial_167_573" cx="0" cy="0" r="1" gradientUnits="userSpaceOnUse" gradientTransform="translate(30.958 22.6304) scale(62.1406 61.2673)">
<stop stop-color="#423325" stop-opacity="0.98"/>
<stop offset="1" stop-color="#1C0A00"/>
</radialGradient>
</defs>
</svg>
