<svg width="90" height="89" viewBox="0 0 90 89" fill="none" xmlns="http://www.w3.org/2000/svg">
<path d="M3.93408 3.42578H85.5995V84.2804H3.93408V3.42578Z" fill="url(#paint0_radial_167_561)"/>
<path d="M3.93406 3.77927H85.5994V84.6338H3.93406V3.77927ZM0.221191 88.4131H89.2945V0H0.221191V88.4131ZM60.2876 36.2846C57.3602 36.2846 56.3606 37.7927 56.3606 39.0464C56.3606 40.4091 57.021 41.3539 60.9659 43.4253C66.7852 46.296 68.6059 49.0578 68.6059 53.0915C68.6059 59.1419 64.0719 62.3943 57.9492 62.3943C54.7183 62.3943 51.9337 61.722 50.345 60.7772C50.0772 60.6682 50.0415 60.4683 50.0415 60.1776V54.5995C50.0415 54.218 50.22 54.109 50.4878 54.2906C52.8262 55.8351 55.5037 56.5255 57.9492 56.5255C60.8767 56.5255 62.1084 55.2718 62.1084 53.582C62.1084 52.2193 61.2515 51.0201 57.503 49.0396C52.2371 46.4777 50.0415 43.8795 50.0415 39.5188C50.0415 34.6494 53.7901 30.5975 60.2876 30.5975C63.4828 30.5975 65.7141 31.0881 66.928 31.6514C67.2314 31.8331 67.3028 32.142 67.3028 32.4145V37.5928C67.3028 37.9017 67.1243 38.0834 66.7495 37.9744C65.1072 36.9205 62.6974 36.2846 60.2876 36.2846ZM28.3712 40.7725C29.228 40.8452 29.8885 40.8452 31.3701 40.8452C35.7077 40.8452 39.7954 39.3008 39.7954 33.2866C39.7954 28.4899 36.868 26.0733 31.9234 26.0733C30.4418 26.0733 29.0317 26.146 28.3533 26.1823L28.3712 40.7725ZM21.7487 20.7133C21.7487 20.4408 22.2664 20.2591 22.5698 20.2591C24.9439 20.15 28.4783 20.0774 32.1376 20.0774C42.4194 20.0774 46.4358 25.8189 46.4358 33.1413C46.4358 42.7348 39.5991 46.8593 31.2094 46.8593C29.7992 46.8593 29.3173 46.7866 28.3176 46.7866V61.2859C28.3176 61.5948 28.2105 61.7402 27.8714 61.7402H22.195C21.8915 61.7402 21.7487 61.6311 21.7487 61.2859V20.7133Z" fill="#31C5F0"/>
<defs>
<radialGradient id="paint0_radial_167_561" cx="0" cy="0" r="1" gradientUnits="userSpaceOnUse" gradientTransform="translate(30.8385 21.5656) scale(62.0565 61.1565)">
<stop stop-color="#34364E" stop-opacity="0.98"/>
<stop offset="1" stop-color="#0C0824"/>
</radialGradient>
</defs>
</svg>
